<?xml version="1.0" encoding="utf-8"?>
<!-- Generator: Adobe Illustrator 26.3.1, SVG Export Plug-In . SVG Version: 6.00 Build 0)  -->
<svg version="1.1" id="Layer_1" xmlns="http://www.w3.org/2000/svg" xmlns:xlink="http://www.w3.org/1999/xlink" x="0px" y="0px"
	 viewBox="0 0 130 69" style="enable-background:new 0 0 130 69;" xml:space="preserve">
<style type="text/css">
	.st0{fill:#662046;}
	.st1{fill-rule:evenodd;clip-rule:evenodd;fill:#662046;}
</style>
<path class="st0" d="M61.6,30.8V19.5h3.8c1.1,0,2,0.1,2.7,0.4c0.7,0.3,1.3,0.7,1.8,1.3c0.8,1,1.2,2.2,1.2,3.8c0,1.9-0.5,3.3-1.5,4.4
	c-1,1-2.4,1.6-4.2,1.6L61.6,30.8z M63.2,29.6h2.1c1.5,0,2.5-0.4,3.1-1.2c0.7-0.8,1-2,1-3.4c0-1.3-0.3-2.4-1-3.1
	c-0.4-0.4-0.9-0.8-1.4-1c-0.5-0.2-1.4-0.3-2.5-0.3h-1.3V29.6z"/>
<path class="st0" d="M72.5,30.8V19.5h1.6v11.4H72.5z"/>
<path class="st0" d="M78.3,31.1c-0.8,0-1.7-0.2-2.9-0.5V29c1.3,0.6,2.3,0.9,3.2,0.9c0.6,0,1.1-0.2,1.5-0.5c0.4-0.3,0.6-0.8,0.6-1.3
	c0-0.4-0.1-0.8-0.4-1.1c-0.2-0.3-0.7-0.7-1.4-1L78,25.5c-1-0.6-1.6-1.1-2-1.6c-0.4-0.5-0.6-1.1-0.6-1.7c0-0.8,0.3-1.6,1-2.2
	c0.6-0.6,1.4-0.8,2.4-0.8c0.9,0,1.9,0.2,2.8,0.4v1.5c-1.2-0.5-2.1-0.7-2.7-0.7c-0.5,0-1,0.1-1.4,0.4C77.2,21.1,77,21.5,77,22
	c0,0.4,0.1,0.7,0.4,1c0.4,0.4,0.9,0.8,1.5,1l0.8,0.5c1,0.6,1.7,1.1,2.1,1.6c0.4,0.5,0.6,1.1,0.6,1.8c0,0.9-0.4,1.8-1.1,2.4
	C80.4,30.8,79.5,31.1,78.3,31.1z"/>
<path class="st0" d="M88.4,31.1c-1.8,0-3.1-0.5-4.1-1.6c-1-1-1.4-2.5-1.4-4.4c0-1.9,0.5-3.4,1.5-4.4c1-1,2.4-1.6,4.1-1.6
	c1.2,0,2.4,0.2,3.6,0.5v1.5c-1.6-0.5-2.8-0.8-3.6-0.8c-1.2,0-2.2,0.4-2.9,1.3c-0.7,0.8-1,2-1,3.5c0,1.4,0.4,2.6,1.1,3.4
	c0.7,0.8,1.7,1.3,3,1.3c1.1,0,2.2-0.3,3.5-1v1.4C91,30.8,89.7,31.1,88.4,31.1z"/>
<path class="st0" d="M98.1,31.1c-1.6,0-2.8-0.5-3.8-1.6c-1-1.1-1.4-2.5-1.4-4.3c0-1.8,0.5-3.2,1.4-4.3c1-1.1,2.3-1.6,3.9-1.6
	c1.6,0,2.9,0.5,3.9,1.6c1,1.1,1.5,2.5,1.5,4.3c0,1.8-0.5,3.3-1.5,4.4C101,30.6,99.7,31.1,98.1,31.1z M98.1,29.9
	c1.2,0,2.1-0.4,2.7-1.3c0.6-0.8,1-2,1-3.5c0-1.5-0.3-2.6-1-3.5c-0.6-0.8-1.5-1.3-2.6-1.3c-1.1,0-2,0.4-2.6,1.3c-0.6,0.8-1,2-1,3.5
	c0,1.5,0.3,2.6,0.9,3.5C96.1,29.5,97.1,29.9,98.1,29.9L98.1,29.9z"/>
<path class="st0" d="M107.9,30.8l-4.3-11.4h1.6l3.5,9.3l3.4-9.3h1.4l-4.1,11.4H107.9z"/>
<path class="st0" d="M114.1,30.8V19.5h6.3v1.2h-4.7v3.6h4v1.2h-4v4.1h5.1v1.2L114.1,30.8z"/>
<path class="st0" d="M121.7,30.8V19.5h3.4c1.1,0,1.9,0.2,2.5,0.7c0.6,0.5,0.9,1.2,0.9,2.1c0,1.5-0.8,2.6-2.3,3.2l3.8,5.3h-2
	l-3.2-4.8h-1.5v4.8H121.7z M123.3,24.8h0.5c2,0,3-0.8,3-2.4c0-1.2-0.8-1.8-2.5-1.8h-1V24.8z"/>
<path class="st0" d="M76.8,52.8c-2.5-0.8-4.6-1.8-6.3-2.9C70,50,69.5,50,68.9,50c-2.2,0-3.9-0.8-5.2-2.3c-1.3-1.6-2-3.6-2-6.1
	c0-2.6,0.7-4.6,2-6.1c1.4-1.5,3.2-2.3,5.5-2.3c2.3,0,4.1,0.8,5.5,2.3c1.4,1.5,2,3.6,2,6.2c0,3.7-1.4,6.2-4.1,7.6
	c1.8,0.8,3.8,1.4,5.7,1.7L76.8,52.8z M69.1,48.4c1.6,0,2.9-0.6,3.8-1.8c0.9-1.2,1.3-2.8,1.3-5c0-2.1-0.4-3.7-1.3-4.9
	c-0.9-1.2-2.1-1.8-3.7-1.8c-1.6,0-2.8,0.6-3.7,1.8c-0.9,1.2-1.3,2.8-1.3,4.9c0,2.1,0.4,3.7,1.3,4.9C66.3,47.8,67.5,48.4,69.1,48.4z"
	/>
<path class="st0" d="M90.4,49.6l-1.7-4.4h-6.8l-1.8,4.4H78l6.4-16h2.2l6.3,16H90.4z M88,43.5l-2.7-6.9l-2.7,6.9H88z"/>
<path class="st0" d="M96.3,49.6V35.3h-5.7v-1.7h13.6v1.7h-5.7v14.3H96.3z"/>
<path class="st0" d="M114.4,49.6l-1.7-4.4h-6.8l-1.8,4.4H102l6.4-16h2.2l6.3,16H114.4z M112,43.5l-2.7-6.9l-2.7,6.9H112z"/>
<path class="st0" d="M118.3,49.6v-16h4.9c1.5,0,2.7,0.3,3.5,1c0.8,0.7,1.2,1.7,1.2,3c0,2.1-1.1,3.7-3.2,4.5l5.4,7.5h-2.8l-4.6-6.8
	h-2.1v6.8H118.3z M120.5,41.2h0.7c2.9,0,4.3-1.1,4.3-3.4c0-1.7-1.2-2.5-3.6-2.5h-1.4L120.5,41.2z"/>
<path class="st1" d="M39.4,17.8c1.3-0.6,2.7-1.1,4-1.6c1.4-0.5,2.9-1,4.5-1.5l0.5-0.2h0c-0.4-0.4-0.8-0.8-1.2-1.1
	C45,14.5,42.4,16,39.4,17.8z"/>
<path class="st0" d="M38,46.3c1.3-1,2.4-2.3,3.2-3.6C40.3,44,39.3,45.3,38,46.3z"/>
<path class="st0" d="M41.7,41.8L41.7,41.8c0.1-0.1,0.1-0.1,0.1-0.2L41.7,41.8z"/>
<path class="st0" d="M37.4,46.7L37.4,46.7L37.4,46.7z"/>
<path class="st0" d="M38,46.3c-0.1,0.1-0.2,0.1-0.3,0.2C37.8,46.5,37.9,46.4,38,46.3z"/>
<path class="st0" d="M32.4,49.2L32.4,49.2c0.2-0.1,0.3-0.1,0.4-0.1C32.7,49.1,32.6,49.1,32.4,49.2z"/>
<path class="st0" d="M33,49l0.1,0c0.1,0,0.2-0.1,0.3-0.1C33.3,48.9,33.2,48.9,33,49z"/>
<path class="st0" d="M32.1,49.3l-0.2,0L32.1,49.3z"/>
<path class="st0" d="M33.6,48.8l0.1,0c0.1,0,0.2-0.1,0.4-0.1l0,0C33.9,48.7,33.8,48.7,33.6,48.8z"/>
<path class="st0" d="M43.5,35.7C43.5,35.8,43.5,35.8,43.5,35.7C43.5,35.8,43.5,35.8,43.5,35.7z"/>
<path class="st0" d="M43.5,36.1c0,0.1,0,0.3,0,0.4C43.5,36.3,43.5,36.2,43.5,36.1z"/>
<path class="st0" d="M43.1,38.4c0-0.1,0.1-0.2,0.1-0.3c0-0.1,0.1-0.3,0.1-0.4c0-0.2,0.1-0.3,0.1-0.4c0-0.1,0-0.2,0-0.3
	c0-0.1,0-0.2,0-0.3C43.3,37.3,43.2,37.8,43.1,38.4z"/>
<path class="st0" d="M41.5,42.2c-0.1,0.1-0.1,0.2-0.2,0.3L41.5,42.2z"/>
<path class="st0" d="M53,14.3c-0.1-0.1-0.3-0.1-0.8,0c-10.1,2.9-19.2,6.5-27,11.7c-0.2,0.1-0.5-0.2-0.1-0.4c0.2-0.1,4.6-3.3,9.2-5.6
	c3.8-2.4,10.4-6.6,16-9.1c0.7-0.3,0.8-0.4,0.8-0.6c0-0.2,0-0.3-0.2-0.5c-0.1-0.1-0.8,0-1.1,0.2c-0.5,0.2-10,3.2-24.7,14.2
	c-4,2.9-7.6,6.3-10.9,10c-3.3,3.8-4.7,6.4-4.8,6.5c-0.1,0.2-0.3,0.5-0.1,0.7c0.3,0.3,0.6,0.6,1.4,0.1c0.8-0.5,1-0.8,1.1-0.8
	c0.1,0,0.1,0.3-0.1,0.6c-0.2,0.3-0.9,1-1.3,1c-0.2,0-0.1,0.1-0.1,0.1c0.6,0.7,1.2,1.4,1.9,2c0,0,0.3,0.4,1.1,0.1
	c0.9-0.4,1.7-1,2.3-1.8c0.2-0.2,0.4-0.5,0.5-0.8c1-1.6,2.4-4.6,3.4-8.2c0,0-0.8,0.6-1.4,0.4c0.2-0.6,0.5-1.2,1-1.7
	c0.8-0.7,1.1-0.7,1.1-0.7l0.5-2.4c0.9,1.2,1.3,2.9,1,4.8c0,0,1.1-0.8,1.5-2.8c0,0,1.2,3.8-0.2,6.6c-1.2,2.5-3.7,3.7-4.4,3.9
	c-0.6,0.3-0.4,0.4,0,0.4c0.9-0.1,1.8-0.3,2.7-0.6c0.8-0.3,1.2,0,1.9,1c0.6,0.8,2.7,4.1,4.2,6.1c0.2,0,0.6,0,0.9,0c1,0,2-0.1,3-0.3
	c6.4-1.4,11-7,11.2-13.6c-10.2-0.9-12.2-4.8-12.2-4.8s0-0.5,0.3-0.5c1.1,0,2.2,0.1,3.4-0.4c1.6-0.7,1.8-1.5,1.8-1.5
	c-1.6-0.1-5.1-0.2-7.7-0.3c0,0-0.3,0-0.3-0.2c0-0.4,0.5-0.7,0.5-0.7c5.1-3.5,13.1-7.2,24-11.3c0.4-0.2,0.6-0.3,0.6-0.4
	C53.2,14.6,53.1,14.4,53,14.3z"/>
<path class="st0" d="M42.5,40.1c0,0,0-0.1,0.1-0.1l0,0L42.5,40.1z"/>
<path class="st0" d="M42.9,39.1C42.9,39.1,42.9,39,42.9,39.1c0.1-0.2,0.1-0.4,0.2-0.5C43,38.7,42.9,38.9,42.9,39.1z"/>
<path class="st0" d="M42.7,39.6C42.7,39.6,42.7,39.6,42.7,39.6c0-0.1,0.1-0.1,0.1-0.2l0.1-0.2c0,0,0,0,0-0.1
	C42.8,39.3,42.8,39.5,42.7,39.6z"/>
<path class="st1" d="M20,47.2c-0.1-0.1-0.2-0.1-0.3-0.2c-0.2-0.2-0.5-0.4-0.7-0.6l-0.2-0.1c-0.1-0.1-0.2-0.2-0.3-0.3
	c-0.1-0.1-0.2-0.1-0.2-0.2c-0.1-0.1-0.2-0.2-0.3-0.3s-0.2-0.1-0.2-0.2c-0.1-0.1-0.2-0.2-0.3-0.3s-0.2-0.2-0.2-0.2
	c-0.1-0.1-0.2-0.2-0.3-0.3c-0.1-0.1-0.1-0.2-0.2-0.3c-0.1-0.1-0.2-0.2-0.2-0.3c-0.1-0.1-0.1-0.2-0.2-0.3l0,0
	c-0.8,0.9-1.7,1.3-2.5,1.6c-0.3,0.1-0.6,0.2-0.9,0.2c-0.4,0-0.8-0.1-1.1-0.4c-0.7-0.6-1.4-1.3-2-2l0,0l0-0.1
	c-0.1-0.1-0.1-0.3-0.1-0.4c-0.3-0.1-0.5-0.3-0.7-0.5l0,0c-0.6-0.7-0.2-1.4,0.1-1.7c0,0,0-0.1,0.1-0.1c1.3-2.2,2.7-4.4,4.3-6.4
	c0,0,0-0.1,0-0.1c0-0.1,0-0.2,0-0.4c0-0.1,0-0.3,0-0.4s0-0.2,0-0.4s0-0.2,0-0.4c0-0.1,0-0.2,0.1-0.4c0-0.1,0-0.2,0.1-0.4
	s0.1-0.2,0.1-0.4c0-0.1,0.1-0.2,0.1-0.3c0-0.1,0.1-0.2,0.1-0.4c0-0.1,0.1-0.2,0.1-0.3s0.1-0.2,0.1-0.4c0-0.1,0.1-0.2,0.1-0.3
	c0-0.1,0.1-0.2,0.1-0.4s0.1-0.2,0.1-0.3s0.1-0.2,0.2-0.4l0.1-0.3c0.1-0.1,0.1-0.2,0.2-0.4s0.1-0.2,0.1-0.3c0.1-0.1,0.1-0.2,0.2-0.3
	c0.1-0.1,0.1-0.2,0.2-0.3s0.1-0.2,0.2-0.3l0.2-0.3c0.1-0.1,0.2-0.2,0.2-0.4c0.1-0.1,0.1-0.2,0.2-0.3c0.1-0.1,0.2-0.2,0.3-0.3
	l0.2-0.2c0.1-0.1,0.2-0.2,0.3-0.3s0.1-0.2,0.2-0.2c0.1-0.1,0.2-0.2,0.3-0.3c0.1-0.1,0.1-0.2,0.2-0.2c0.1-0.1,0.2-0.2,0.3-0.3
	c0.1-0.1,0.2-0.1,0.2-0.2l0.3-0.3l0.2-0.2c0.1-0.1,0.2-0.2,0.3-0.3c0.1-0.1,0.2-0.1,0.3-0.2c0.1-0.1,0.2-0.2,0.3-0.2
	s0.2-0.1,0.3-0.2s0.2-0.2,0.4-0.2s0.2-0.1,0.3-0.2s0.2-0.1,0.4-0.2c0.1-0.1,0.2-0.1,0.3-0.2c0.1-0.1,0.3-0.1,0.4-0.2
	c0.1-0.1,0.2-0.1,0.3-0.2c0.1-0.1,0.3-0.1,0.4-0.2c0.1,0,0.2-0.1,0.3-0.1c0.1-0.1,0.3-0.1,0.4-0.2c0.1,0,0.2-0.1,0.3-0.1
	c0.1-0.1,0.3-0.1,0.4-0.1c0.1,0,0.2-0.1,0.3-0.1c0.2-0.1,0.3-0.1,0.5-0.1c0.1,0,0.2,0,0.3-0.1c0.3-0.1,0.5-0.1,0.8-0.2
	c0.4-0.1,0.8-0.1,1.3-0.2l0.2,0c0.4,0,0.8-0.1,1.2-0.1h0.2c0.4,0,0.8,0,1.2,0l0.2,0c0.3,0,0.5,0.1,0.8,0.1c5.4-3.6,10.9-6.6,14-8
	l0.2-0.1c-12.8-9-30.5-5.8-39.5,7c-6.7,9.5-6.8,22.1-0.4,31.8C12.9,50.5,18.4,48,20,47.2z"/>
<path class="st1" d="M38.5,23.1L38.5,23.1c0.3,0.3,0.6,0.5,0.8,0.8l0.1,0.1c0.5,0.5,0.9,1,1.3,1.6c0,0.1,0.1,0.1,0.1,0.2
	c0.2,0.3,0.4,0.6,0.6,0.9l0,0c0.2,0.3,0.3,0.6,0.5,0.9l0.1,0.2c0.3,0.6,0.5,1.1,0.7,1.7c0,0.1,0.1,0.2,0.1,0.2
	c0.1,0.2,0.1,0.5,0.2,0.7l0.1,0.3c0.1,0.3,0.2,0.6,0.2,0.9s0.1,0.6,0.1,0.9c0,0.1,0,0.2,0,0.3c0,0.2,0,0.4,0.1,0.6
	c0,0.1,0,0.2,0,0.3c0,0.2,0,0.4,0,0.7v0.1l0.3-0.3c2.2-2.5,7.2-8.4,11.1-9.3c-1-2.8-2.5-5.5-4.4-7.9l-0.5,0.2l-0.6,0.2l-0.6,0.3
	c-0.3,0.1-0.6,0.3-1,0.4l-0.4,0.2c-0.2,0.1-0.4,0.2-0.7,0.3l0,0c-1.3,0.5-2.5,1-3.6,1.5c-1.3,0.6-2.4,1.1-3.5,1.5
	c-0.8,0.4-1.4,0.7-2,1c0,0,0,0,0,0C38,22.7,38.2,22.9,38.5,23.1z"/>
<path class="st0" d="M55.3,25.6c-3.6,0.7-8.8,6.7-10.7,9c-0.3,0.3-0.5,0.6-0.7,0.8c-0.1,0.1-0.2,0.2-0.3,0.3
	c-0.7,8.4-8.1,14.6-16.5,13.9c-2.2-0.2-4.3-0.8-6.2-1.9C20.3,48.1,15.2,51,6.6,51c-0.4,0-0.9,0-1.3,0c1.9,2.6,11.5,14.6,28.6,11.3
	C48.8,59.7,60.9,43.3,55.3,25.6z"/>
</svg>
