<svg fill="currentColor" xmlns="http://www.w3.org/2000/svg" viewBox="0 0 110 111"><path fill-rule="evenodd" clip-rule="evenodd" d="M55 6.25c-12.657 0-22.917 10.26-22.917 22.917 0 12.656 10.26 22.916 22.917 22.916 12.656 0 22.917-10.26 22.917-22.916C77.917 16.51 67.657 6.25 55 6.25ZM25.833 29.167C25.833 13.058 38.892 0 55 0c16.108 0 29.167 13.058 29.167 29.167 0 16.108-13.059 29.166-29.167 29.166-16.108 0-29.167-13.058-29.167-29.166Zm-13.338 75h85.01C90.561 86.347 74.07 73.958 55 73.958c-19.07 0-35.561 12.39-42.505 30.209Zm-7.366 2.237C11.739 84.087 31.479 67.708 55 67.708s43.26 16.379 49.871 38.696a3.124 3.124 0 0 1-2.996 4.013H8.125a3.126 3.126 0 0 1-2.996-4.013Z"/></svg>